<svg xmlns="http://www.w3.org/2000/svg" viewBox="0 0 28.36 29.37"><defs><style>.cls-1{fill:#009dc4;}</style></defs><g id="Capa_2" data-name="Capa 2"><g id="Pc"><path class="cls-1" d="M24.69,3.16q3.68,3.15,3.67,9h-8.7a5.64,5.64,0,0,0-1.29-3.91,4.77,4.77,0,0,0-3.7-1.45,4.76,4.76,0,0,0-4.06,1.73,8,8,0,0,0-1.3,4.82V16a7.91,7.91,0,0,0,1.3,4.8,4.63,4.63,0,0,0,4,1.76,5.49,5.49,0,0,0,4-1.36A5.16,5.16,0,0,0,20,17.37h8.41c0,3.88-1.19,6.84-3.57,8.91s-5.74,3.09-10.07,3.09q-7.26,0-11-3.71T0,14.67q0-7.24,3.73-11T14.72,0Q21,0,24.69,3.16Z"/></g></g></svg>