<svg xmlns="http://www.w3.org/2000/svg" viewBox="0 0 74.94 74.94"><g id="Capa_2" data-name="Capa 2"><g id="Objects"><path d="M38.14,17.37c-11.07,0-20,8.37-20,18.68a18.22,18.22,0,0,0,7.54,14.61l0,7L32.38,54a21.36,21.36,0,0,0,5.76.78c11.06,0,20-8.36,20-18.68S49.2,17.37,38.14,17.37ZM51,31,40.17,42.55l-5.1-5.47-9.88,5.44,0,0s0,0,0-.05L36.07,30.82c.26.26,5,5.19,5.22,5.46l9.76-5.43,0,0Z"/><path d="M37.47,0A37.47,37.47,0,1,0,74.94,37.47,37.51,37.51,0,0,0,37.47,0Zm0,70.13A32.66,32.66,0,1,1,70.13,37.47,32.7,32.7,0,0,1,37.47,70.13Z"/></g></g></svg>