<svg xmlns="http://www.w3.org/2000/svg" viewBox="0 0 74.94 74.94"><g id="Capa_2" data-name="Capa 2"><g id="Objects"><path d="M37.74,16.76A20.18,20.18,0,1,0,57.92,36.94,20.18,20.18,0,0,0,37.74,16.76ZM47,45.92a1.2,1.2,0,0,1-1.71.4c-4.74-2.93-10.7-3.53-17.76-1.92A1.25,1.25,0,1,1,27,42c7.66-1.71,14.32-1,19.57,2.22A1.2,1.2,0,0,1,47,45.92Zm2.43-5.55a1.52,1.52,0,0,1-2.12.5,26.15,26.15,0,0,0-20.08-2.32,1.53,1.53,0,1,1-.91-2.92c7.37-2.22,16.45-1.11,22.7,2.72A1.43,1.43,0,0,1,49.45,40.37Zm.2-5.65c-6.46-3.84-17.26-4.24-23.41-2.32a1.85,1.85,0,0,1-1.11-3.53c7.16-2.12,19-1.72,26.43,2.72a2,2,0,0,1,.71,2.62A2.11,2.11,0,0,1,49.65,34.72Z"/><path d="M37.47,74.94A37.47,37.47,0,1,0,0,37.47,37.51,37.51,0,0,0,37.47,74.94Zm0-70.13A32.66,32.66,0,1,1,4.81,37.47,32.7,32.7,0,0,1,37.47,4.81Z"/></g></g></svg>