<svg xmlns="http://www.w3.org/2000/svg" viewBox="0 0 74.94 74.94"><g id="Capa_2" data-name="Capa 2"><g id="Objects"><path fill="#eee" d="M44.73,39.86A3.19,3.19,0,0,0,42,39.25c-.7.29-1.16,1.4-1.61,2a.68.68,0,0,1-.88.19,12.36,12.36,0,0,1-6.16-5.27.77.77,0,0,1,.1-1,4.16,4.16,0,0,0,1.11-1.81,4,4,0,0,0-.5-2.15,5.06,5.06,0,0,0-1.58-2.39,2.17,2.17,0,0,0-2.37.35,4.81,4.81,0,0,0-1.66,3.8,6.06,6.06,0,0,0,.15,1.2,10.06,10.06,0,0,0,1.16,2.67A20,20,0,0,0,31,38.59a18.5,18.5,0,0,0,5.23,4.86A15.83,15.83,0,0,0,39.47,45a7.31,7.31,0,0,0,3.8.6A4.6,4.6,0,0,0,46.71,43a2.19,2.19,0,0,0,.16-1.31C46.68,40.83,45.46,40.3,44.73,39.86Z"/><path fill="#eee" d="M37.65,18.19A19,19,0,0,0,21,46.41l-2.76,10.3,10.36-2.78a19,19,0,1,0,9-35.74Zm0,34.45a15.39,15.39,0,0,1-7.88-2.18l-.65-.39-5.78,1.55,1.54-5.75-.4-.66a15.41,15.41,0,1,1,13.17,7.43Z"/><path fill="#eee" d="M37.47,0A37.47,37.47,0,1,0,74.94,37.47,37.51,37.51,0,0,0,37.47,0Zm0,70.13A32.67,32.67,0,1,1,70.13,37.47,32.7,32.7,0,0,1,37.47,70.13Z"/></g></g></svg>